HIERARCHY
ROOT Hips
{
 OFFSET 0.000000 0.000000 0.000000
 CHANNELS 6 Xposition Yposition Zposition Yrotation Xrotation Zrotation
 JOINT Chest
 {
  OFFSET 0.000000 9.585900 0.002600
  CHANNELS 3 Yrotation Xrotation Zrotation
  JOINT Chest2
  {
   OFFSET 0.000000 9.601200 -0.005300
   CHANNELS 3 Yrotation Xrotation Zrotation
   JOINT Chest3
   {
    OFFSET 0.000000 9.561800 0.000000
    CHANNELS 3 Yrotation Xrotation Zrotation
    JOINT Chest4
    {
     OFFSET 0.000000 9.552100 0.000000
     CHANNELS 3 Yrotation Xrotation Zrotation
     JOINT Neck
     {
      OFFSET 0.000000 14.453000 0.000000
      CHANNELS 3 Yrotation Xrotation Zrotation
      JOINT Head
      {
       OFFSET 0.000000 8.936500 -0.011300
       CHANNELS 3 Yrotation Xrotation Zrotation
       End Site
       {
        OFFSET 0.000000 17.073600 -0.006000
       }
      }
     }
     JOINT RightCollar
     {
      OFFSET -2.921100 9.558500 0.000000
      CHANNELS 3 Yrotation Xrotation Zrotation
      JOINT RightShoulder
      {
       OFFSET -13.519700 0.000000 0.000000
       CHANNELS 3 Yrotation Xrotation Zrotation
       JOINT RightElbow
       {
        OFFSET 0.000000 -29.696600 0.000000
        CHANNELS 3 Yrotation Xrotation Zrotation
        JOINT RightWrist
        {
         OFFSET 0.000000 -24.004700 0.000000
         CHANNELS 3 Yrotation Xrotation Zrotation
         End Site
         {
          OFFSET 0.000000 -17.728500 0.000000
         }
        }
       }
      }
     }
     JOINT LeftCollar
     {
      OFFSET 2.921100 9.558500 0.000000
      CHANNELS 3 Yrotation Xrotation Zrotation
      JOINT LeftShoulder
      {
       OFFSET 13.519700 0.000000 0.000000
       CHANNELS 3 Yrotation Xrotation Zrotation
       JOINT LeftElbow
       {
        OFFSET 0.000000 -29.696600 0.000000
        CHANNELS 3 Yrotation Xrotation Zrotation
        JOINT LeftWrist
        {
         OFFSET 0.000000 -24.004700 0.000000
         CHANNELS 3 Yrotation Xrotation Zrotation
         End Site
         {
          OFFSET 0.000000 -17.728500 0.000000
         }
        }
       }
      }
     }
    }
   }
  }
 }
 JOINT RightHip
 {
  OFFSET -7.771700 -0.012900 -0.001300
  CHANNELS 3 Yrotation Xrotation Zrotation
  JOINT RightKnee
  {
   OFFSET 0.000000 -40.869800 0.001200
   CHANNELS 3 Yrotation Xrotation Zrotation
   JOINT RightAnkle
   {
    OFFSET 0.000000 -39.717900 0.002100
    CHANNELS 3 Yrotation Xrotation Zrotation
    JOINT RightToe
    {
     OFFSET 0.000000 -4.965400 11.033500
     CHANNELS 3 Yrotation Xrotation Zrotation
     End Site
     {
      OFFSET 0.000000 -1.423100 5.872300
     }
    }
   }
  }
 }
 JOINT LeftHip
 {
  OFFSET 7.771700 -0.012900 -0.001300
  CHANNELS 3 Yrotation Xrotation Zrotation
  JOINT LeftKnee
  {
   OFFSET 0.000000 -40.869800 0.001200
   CHANNELS 3 Yrotation Xrotation Zrotation
   JOINT LeftAnkle
   {
    OFFSET 0.000000 -39.717900 0.002100
    CHANNELS 3 Yrotation Xrotation Zrotation
    JOINT LeftToe
    {
     OFFSET 0.000000 -4.965400 11.033500
     CHANNELS 3 Yrotation Xrotation Zrotation
     End Site
     {
      OFFSET 0.000000 -1.423100 5.872300
     }
    }
   }
  }
 }
}
MOTION
Frames: 9
Frame Time: 0.008333
-24.606985 50.311054 27.153892 158.786638 -13.042299 -0.899689 2.092822 8.649537 2.766866 0.098758 0.465112 0.093661 0.135374 0.760148 0.173908 1.870511 8.102816 1.743601 3.218478 21.418940 2.322670 5.356545 3.997643 3.266934 4.566289 0.809185 -5.694941 -0.685021 -9.851250 -16.303271 -86.819367 -69.557564 123.204416 -2.245507 0.329865 -28.591192 -6.631852 -2.327380 5.175244 11.649220 -7.952978 3.070025 125.586508 -73.636659 -156.636355 1.999630 5.137001 20.203088 5.898468 -67.682642 -1.561395 -117.247915 81.546731 -117.214178 -4.590344 -14.791663 3.456235 -0.439364 1.152337 -0.159253 -8.464163 -70.911702 31.646213 123.660008 79.508042 120.954870 -16.734539 -25.425025 0.612552 -0.300033 -0.983149 -0.117273
-24.622553 50.305054 27.163234 158.801030 -13.142176 -0.904450 2.016722 8.651973 2.777152 0.094984 0.471518 0.095265 0.155210 0.807303 0.168683 1.771338 8.126777 1.761819 3.243927 21.436273 2.254327 5.388448 4.013448 3.219437 4.770468 0.695620 -5.807809 -0.640012 -10.053981 -16.359735 -87.468290 -69.636964 123.663196 -2.214124 0.288521 -28.585004 -6.636535 -2.444357 5.234428 11.578919 -8.272594 3.055303 126.836265 -73.498751 -157.641406 2.004861 5.130382 20.372132 5.843478 -67.595031 -1.486225 -117.159531 81.543200 -117.175892 -4.622346 -14.768918 3.490078 -0.425243 1.137578 -0.165065 -8.447658 -70.825511 31.616241 123.699971 79.513617 120.973788 -16.717613 -25.423732 0.628208 -0.296867 -0.988497 -0.117091
-24.637301 50.299241 27.175423 158.808543 -13.221086 -0.915133 1.957391 8.661025 2.792851 0.092149 0.477079 0.096380 0.160610 0.828686 0.167854 1.704590 8.166089 1.771851 3.241682 21.434291 2.197113 5.283221 3.994362 3.084439 4.945609 0.566330 -5.918498 -0.585692 -10.245683 -16.387928 -88.120856 -69.709647 124.110394 -2.195142 0.238403 -28.584804 -6.678211 -2.567461 5.313594 11.517211 -8.557722 3.038253 128.029417 -73.323434 -158.584483 2.023120 5.109361 20.536575 5.806214 -67.530761 -1.419368 -117.050673 81.535971 -117.108150 -4.645667 -14.738865 3.530513 -0.423420 1.127673 -0.172486 -8.454993 -70.758134 31.620313 123.726466 79.520176 120.975104 -16.683755 -25.423012 0.638406 -0.267076 -0.988032 -0.109683
-24.650172 50.294672 27.185919 158.821709 -13.306888 -0.929478 1.912967 8.705228 2.810102 0.090492 0.480672 0.097025 0.157662 0.834882 0.169058 1.645258 8.199679 1.781169 3.222117 21.421021 2.145747 5.232979 3.963962 2.980277 5.100147 0.433781 -6.031916 -0.522473 -10.425750 -16.388791 -88.779159 -69.774200 124.551925 -2.186629 0.183866 -28.595723 -6.748525 -2.684431 5.401590 11.468340 -8.812120 3.022078 129.147731 -73.113723 -159.450327 2.050803 5.076753 20.695226 5.773711 -67.455191 -1.363374 -116.945315 81.524334 -117.036836 -4.647314 -14.719400 3.561895 -0.440432 1.124144 -0.172765 -8.479253 -70.692078 31.645553 123.814470 79.528322 121.045197 -16.689068 -25.392625 0.649525 -0.232485 -1.008452 -0.092648
-24.663590 50.292704 27.187010 158.838021 -13.438366 -0.915472 1.885594 8.823650 2.797651 0.052253 0.441674 0.106605 0.153426 0.843686 0.170661 1.647918 8.245473 1.776964 3.159562 21.398943 2.111975 5.213841 3.927055 2.891268 5.203599 0.301411 -6.135014 -0.449707 -10.594093 -16.365521 -89.437943 -69.832270 124.980116 -2.185356 0.128306 -28.614581 -6.875332 -2.790161 5.506785 11.434096 -9.039887 3.006472 130.195820 -72.877042 -160.243960 2.085261 5.033594 20.845448 5.810259 -67.327291 -1.384724 -116.841736 81.503222 -116.961393 -4.653550 -14.703477 3.590702 -0.444340 1.121105 -0.161788 -8.391711 -70.566854 31.543647 123.839572 79.538608 121.054808 -16.713611 -25.386980 0.663723 -0.175220 -1.011857 -0.077003
-24.675679 50.291474 27.187605 158.897998 -13.568480 -0.910824 1.776792 8.899601 2.787604 0.036783 0.432003 0.108647 0.147892 0.854907 0.172579 1.585669 8.304805 1.781998 3.162751 21.373476 2.053396 5.194306 3.879777 2.806196 5.381237 0.175661 -6.263598 -0.371423 -10.753872 -16.317586 -90.085849 -69.887008 125.384041 -2.187524 0.073709 -28.637635 -6.928144 -2.889408 5.588926 11.411651 -9.239925 2.989124 131.225230 -72.615672 -161.016921 2.121871 4.981710 20.993339 5.826377 -67.203987 -1.402357 -116.706882 81.457682 -116.856720 -4.720386 -14.620435 3.615749 -0.381676 1.048605 -0.129444 -8.345399 -70.449784 31.448523 123.897893 79.553797 121.098864 -16.778726 -25.414649 0.686128 -0.240253 -0.984055 -0.076711
-24.686346 50.289303 27.194389 158.860021 -13.661967 -0.895520 1.726167 8.891222 2.786686 0.071286 0.482982 0.101901 0.168616 0.886611 0.168631 1.484559 8.329935 1.791964 3.165472 21.345320 1.999836 5.171109 3.826815 2.729857 5.553860 0.053864 -6.388153 -0.287738 -10.908599 -16.245081 -90.720391 -69.938975 125.766626 -2.189365 0.018723 -28.673634 -6.983986 -2.978364 5.674525 11.406531 -9.414242 2.967056 132.275459 -72.329565 -161.816803 2.155071 4.923088 21.148015 5.872838 -67.117220 -1.365740 -116.476468 81.416201 -116.707189 -4.615589 -14.654693 3.714495 -0.497738 1.094322 -0.182133 -8.221774 -70.380570 31.387935 124.010674 79.569013 121.207899 -16.793377 -25.331518 0.707489 -0.242693 -1.081694 -0.084399
-24.690784 50.288722 27.196885 158.872650 -13.788275 -0.906700 1.682365 8.974351 2.799559 0.058329 0.474582 0.104623 0.188695 0.917086 0.164500 1.410138 8.358661 1.794352 3.144044 21.314751 1.959516 5.143568 3.771068 2.662025 5.692501 -0.068121 -6.503983 -0.198118 -11.060143 -16.150579 -91.349924 -69.989718 126.139366 -2.192180 -0.039976 -28.726630 -7.068766 -3.056519 5.771238 11.419646 -9.570818 2.938264 133.362958 -72.020774 -162.659631 2.183883 4.862826 21.310850 5.823654 -66.998615 -1.288362 -116.380157 81.387722 -116.633729 -4.641811 -14.634434 3.723651 -0.474536 1.077658 -0.170398 -8.188566 -70.263666 31.354064 124.058688 79.574472 121.249034 -16.783472 -25.336903 0.716843 -0.248363 -1.084374 -0.087466
-24.697189 50.287569 27.199689 158.889041 -13.904679 -0.895638 1.608350 9.022549 2.789775 0.066652 0.495758 0.102955 0.183481 0.922482 0.165420 1.361635 8.417987 1.789914 3.120539 21.281854 1.922326 5.111402 3.710879 2.600378 5.823087 -0.191939 -6.621561 -0.104659 -11.208840 -16.034526 -91.988150 -70.044566 126.516123 -2.197542 -0.099682 -28.789037 -7.153363 -3.129354 5.868652 11.440019 -9.714032 2.903806 134.507021 -71.695010 -163.551138 2.206467 4.801556 21.477964 5.832217 -66.888677 -1.272661 -116.285636 81.356814 -116.560908 -4.684850 -14.622472 3.731822 -0.439379 1.070374 -0.153537 -8.110565 -70.153805 31.264148 124.144549 79.592906 121.307888 -16.729834 -25.336665 0.743876 -0.248504 -1.089680 -0.101888
